<svg width="20" height="19" viewBox="0 0 20 19" fill="none" xmlns="http://www.w3.org/2000/svg">
<path d="M14.4452 10.9091C14.2479 11.1003 14.1573 11.3767 14.2022 11.6479L14.8793 15.395C14.9364 15.7126 14.8024 16.034 14.5366 16.2176C14.2761 16.408 13.9296 16.4308 13.6455 16.2785L10.2723 14.5192C10.155 14.4567 10.0248 14.4232 9.8915 14.4194H9.68511C9.61352 14.4301 9.54345 14.4529 9.47947 14.488L6.10554 16.2557C5.93875 16.3394 5.74987 16.3691 5.5648 16.3394C5.11393 16.2541 4.81309 15.8246 4.88697 15.3714L5.5648 11.6243C5.60974 11.3509 5.5191 11.0729 5.32185 10.8786L2.57168 8.21299C2.34167 7.98983 2.2617 7.65472 2.3668 7.35236C2.46886 7.05076 2.72933 6.83065 3.04387 6.78115L6.82907 6.23202C7.11696 6.20232 7.36981 6.02715 7.49929 5.7682L9.16721 2.34854C9.20682 2.27238 9.25784 2.20231 9.31953 2.1429L9.38808 2.08959C9.42387 2.04998 9.465 2.01723 9.5107 1.99058L9.59371 1.96011L9.72319 1.9068H10.0438C10.3302 1.9365 10.5823 2.10787 10.714 2.36377L12.4041 5.7682C12.5259 6.01725 12.7628 6.19013 13.0362 6.23202L16.8214 6.78115C17.1413 6.82685 17.4086 7.04771 17.5144 7.35236C17.6142 7.65777 17.5282 7.99288 17.2936 8.21299L14.4452 10.9091Z" fill="#F6B76F"/>
</svg>
